<?xml version="1.0" encoding="UTF-8"?>
  <svg width="1600" height="900" viewBox="0 0 1600 900" xmlns="http://www.w3.org/2000/svg">
    <rect width="1600" height="900" fill="#f8fafc"/>
    <rect x="64" y="64" width="1472" height="772" rx="42" fill="#eef6ff" stroke="#e5e7eb"/>
    <rect x="120" y="120" width="1360" height="660" rx="36" fill="#ffffff" stroke="#e5e7eb"/>
    <rect x="160" y="160" width="320" height="20" rx="10" fill="#0f172a" opacity="0.12"/>
    <rect x="160" y="210" width="220" height="16" rx="8" fill="#0f172a" opacity="0.08"/>
    <rect x="160" y="250" width="180" height="16" rx="8" fill="#0f172a" opacity="0.06"/>
    <rect x="880" y="180" width="420" height="420" rx="40" fill="#eef6ff" stroke="#e5e7eb"/>
    
      <rect x="1019.6" y="287.6" width="121.00000000000001" height="127.6" rx="30.800000000000004" fill="none" stroke="#0f172a" stroke-width="8"/>
      <line x1="1050.4" y1="270" x2="1050.4" y2="300.8" stroke="#0f172a" stroke-width="8" stroke-linecap="round"/>
      <line x1="1107.6" y1="270" x2="1107.6" y2="300.8" stroke="#0f172a" stroke-width="8" stroke-linecap="round"/>
      <path d="M 1079 415.20000000000005 L 1079 472.4" stroke="#0f172a" stroke-width="8" stroke-linecap="round"/>
      <path d="M 1079 472.4 C 1079 494.4, 1138.4 494.4, 1138.4 463.6" stroke="#0f172a" stroke-width="8" fill="none" stroke-linecap="round"/>
    
    <rect x="160" y="620" width="520" height="36" rx="18" fill="#0f172a" opacity="0.05"/>
    <rect x="160" y="680" width="420" height="28" rx="14" fill="#0f172a" opacity="0.05"/>
    <rect x="880" y="650" width="420" height="48" rx="24" fill="#0f172a" opacity="0.06"/>
  </svg>